<svg id="Layer_1" data-name="Layer 1" xmlns="http://www.w3.org/2000/svg" viewBox="0 0 1985.05 573.04"><defs><style>.cls-1{fill:#305494;}</style></defs><path class="cls-1" d="M297.9,573c-46-.66-86.39-8-124.32-25.4C82.71,506,23.16,437.15,5.37,338.34-15.54,222.13,25,127.29,118.81,56.49,176.16,13.19,242.47-4.61,314,1,415,8.94,493.91,55.68,546.68,142.36c71.7,117.78,45.71,269.14-59.92,359.16Q416.23,561.61,323.89,571C313.8,572,303.65,572.59,297.9,573ZM403.79,82.41c-2,3.8-3.24,7.09-5.22,9.88a8.3,8.3,0,0,1-5.17,3.34c-5.25.47-8.77-2.73-11.1-7.08-2.07-3.86-4-4.4-8.1-2.09-6.77,3.79-6.8,2.12-11.47-6.07-2.12-3.72-.74-5.45,4.82-7.75,4.59-1.9,10-3.07,13.43-6.28,7.47-7,16.44-10.16,25.9-11.91a58.88,58.88,0,0,1,19.64-.37c9.59,1.52,19,4.46,28.41,6.92A20.24,20.24,0,0,1,459,63.1c0,.53-.09,1.06-.14,1.59L444.69,67c1,.8,1.62,1.41,2.34,1.92,6.44,4.57,12.44,1,18.34-1.28,2.25-.87,4-3,6-4.6-1.35-1.67-2.4-3.76-4.09-4.93-90-62-186.12-72.6-288-33.65-1.44.55-2.78,1.35-4.45,2.17,5.53,3.54,7.82,3.14,11.89-1a8.38,8.38,0,0,1,4.77-2.23c3.29-.35,6.65,0,10-.17,6.92-.33,13.83-.84,20.75-1.19,2.51-.12,5,0,7.9,0l-5.3,6.12c7.17-1.35,12.83-3.15,18.55-3.36q30.93-1.16,61.88-1.36c8.64-.08,17.3.67,25.93,1.32,1.83.13,4.37,1,5.09,2.34.63,1.15-.52,3.66-1.48,5.2-2.48,4-5.79,6.73-11.05,5.89a13.09,13.09,0,0,0-3.92.43l3.32,5.26-6.58,1.63c-.46,1.91-1.56,4-3,4.29-4.49.86-9.14.88-13.69,1.52-3.13.45-6.74.61-9.15,2.31a12,12,0,0,1-7.51,2.5c-3.76,0-8.42.41-11,2.61a31.64,31.64,0,0,1-9.53,5.75c-1.93.73-4.28,2.31-4.93,4.08-2.34,6.23-6.4,8.37-12.09,5.15a44.68,44.68,0,0,1-9.16-6.83c-6-5.82-5.83-9.28,0-15.11,2.57-2.58,5.13-5.18,8.29-8.38L237,42.25c.68-2.22,1.28-4.14,2.15-7H220l3.16-6.72-.85-1.74c-11.07,2-22.21,3.7-33.17,6.13-7.69,1.71-15.17,2-22.67-.2-3.88-1.13-4.13-1.28-7.19,2.28,6.67,2.31,14.38-.17,21.88,4.84-7.35,0-13.43-2-18.93,2,6.81.89,13.85,2.06,20.28.59C190,40.7,196.13,43.54,202.93,45v5.2l8.2,2.66c-2,1.33-2.9,2-3.89,2.57-7,3.78-13.91,7.56-20.92,11.25a6,6,0,0,1-3.37.75c-7.76-1.17-15.51-2.49-23.26-3.76l-.33-1.37c7.3-5.29,18.92-2.57,24.07-11.68-6.42-4.08-13.32-4-20.4-3.3a56.8,56.8,0,0,1-11.44,0c-3.42-.36-3.65-2.31-1.32-4.72,1.24-1.28,2.33-2.71,3.48-4.07l-1.47-1.69c-3.38,2.53-6.88,4.92-10.08,7.66-1.29,1.1-3,3.22-2.68,4.43.83,3.38,6.56,4.89,10,3.55a69.17,69.17,0,0,1,8.67-2.19l.8,1.74c-1.76,1.27-3.37,2.94-5.33,3.72a48.22,48.22,0,0,1-10,2.89,48.53,48.53,0,0,0-18.8,7.43c-5.19,3.32-11.39,5.07-17.16,7.48-1.68.7-3.7.94-5.06,2-2.09,1.67-5.64,4.65-5.21,5.72a15,15,0,0,0,6.35,6.88c4.12,2.32,8.76,3.76,13.26,5.33,2.56.89,3,2.37,2.85,4.89-.55,7.43,1.7,6.8,7.29,6.08,1.7-.22,3.55-3.88,4.23-6.28.79-2.77,1.51-4.45,4.6-5.52,2.59-.9,5-3.26,6.71-5.57,3.8-5.18,7-10.76,10.63-16.09a6.17,6.17,0,0,1,3.05-2.3c9.22-2.89,17,1.34,19.22,10.26.06.25.49.41.86.7l14-5c1.69,9.22,3.72,17.89,12.62,22.3-2.36,6.92-7.71,8.47-13.49,9.19-6.27.78-12.61,1.14-18.85,2.15-2.31.37-4.4,2.06-6.59,3.15l.46,1.18,3.31.9c-.83,2.91-2.77,6-2,8.07.86,2.26,4.24,3.56,6.76,5.46L160.85,132c-1.49-.7-3.46-2.52-5.11-2.26-6.67,1.07-13.8,1.72-16.93,9.44a4.64,4.64,0,0,1-2.47,2.32c-9,3.23-16.47,8.44-21.17,17.56l-4-4.65c-.21,2.62-.34,4.18-.46,5.74-.45,6.06-2.56,10.81-8.9,13.05a38.34,38.34,0,0,0-8.67,4.89C86,183,81.52,189.23,82.74,198.64c.6,4.65.1,9.45.1,14.86-13-3.11-6-12.82-7.75-19.65-8.55-.88-17-6.56-25.71,0-.79.6-2.31.54-3.42.36-8.09-1.33-13.81,3-19.87,7.43-6.43,4.69-8.29,11.81-11.21,18.33a37.45,37.45,0,0,0-3.09,12.88c-.3,5.09,3.26,8.67,8.23,9.83,8.89,2.06,13.86-.65,16.81-9.15a14.37,14.37,0,0,1,1.5-3.67c2-2.72,4.61-3.86,7.82-2.18,5.47,2.86,5.85,12.15.75,15.53a14.75,14.75,0,0,0-3.71,3.28c-2.87,3.83-1.63,6.93,3,7.68,2.62.43,5.32.43,7.9,1,5.93,1.29,6.45,2.85,5.36,8.8a51.73,51.73,0,0,0-.9,14.72c.89,8.08,5.26,10,12.54,6.12,2.89-1.53,5.33-2.39,7.63,1.2,1.55,2.41,4.43,3.21,6,.12,3.28-6.47,10.14-8.27,15.19-12.38,1.26-1,3.61-.69,5.73-1-1.2,3.51-2.17,6.32-3.13,9.14l1.37.55c1.82-2.32,3.65-4.63,5.46-7,1.7-2.19,4.16-2.54,5.35-.29,2.63,4.95,7,3.89,11.15,4.31,4.4.45,9.65,0,13,2.28,6.59,4.51,12.32,10.38,18,16.12,2.47,2.52,4.65,3.94,8.32,4.38,4.57.55,9.63,1.76,13.23,4.39s6.12,7.36,8.7,11.41c1.89,3,2.75,5.93-.77,9.1-2.18,2-5,5.26-1.29,8.49l9.44-5.91c.54,2.81.8,4.19,1.06,5.56.35-.37.7-.73,1-1.1,3.32,2.17,7,3.91,9.83,6.62,3.38,3.27,6.95,4.4,11.54,4.8,4,.35,8,2.37,11.87,3.9,3.49,1.36,6.73,3.44,10.29,4.51,4.33,1.29,6.76,3.54,7.3,8.19.93,7.95-2.45,14.34-7.08,20.12-5.3,6.63-8.42,13.7-7.53,22.37a87.75,87.75,0,0,1,0,11,8.21,8.21,0,0,1-.72,3.2c-1.31,2.78-3,5.4-4.15,8.25-1.7,4.25-1.72,8.94-7.74,10.78-12.93,3.94-17,8.46-15.44,19,.46,3.13-.54,5.32-2.82,7.61a10.92,10.92,0,0,0-2.93,6.76c-.36,11.25-8.11,17.32-19,14.46a34.46,34.46,0,0,0-3.78-.5c.74,2.26.78,4.61,1.85,5.27,5.94,3.61,3.81,9,4.21,14.3-3.67,0-6.66-.09-9.64.05-1,0-2.7.52-2.87,1.13-1,3.74-1.45,7.68-6.31,8.63a5,5,0,0,0,0,2.62c.75,2.17,1.27,4.66,2.71,6.31,5.23,6,3.55,13.13,4.19,20.56,1.12.52,2.73,1.33,4.38,2.05a290.85,290.85,0,0,0,101.08,23.95c67.88,3.66,130.84-12.33,186-52.12,92.46-66.72,133.09-157.5,120.2-271.42-.17-1.51-.62-3-.93-4.49l-1.32-.19c-.86,1.46-1.63,3-2.59,4.37-3.26,4.73-5.86,10.26-10.07,13.93-5.19,4.51-11.6,7.72-17.73,11-7.86,4.2-16,7.86-24.23,7.84-4.66-10-8.89-19.18-13.26-28.29a7.27,7.27,0,0,0-3-3.27c-5.61-2.76-7.34-8.27-10.11-13.17-5.32-9.46-11-18.71-16.78-28.46l-5,4c5,8.47,10.08,16.58,14.6,25A29.79,29.79,0,0,1,494.85,246a9.83,9.83,0,0,0,3,6.79,30.37,30.37,0,0,1,6.23,9.08c1.65,3.84,3.61,6.86,7.43,8.88,5.47,2.9,9.58,7.23,11.23,13.4,1.28,4.83,4.33,6.32,9,5.31,6.63-1.44,13.26-2.84,20.51-4.38-.41,3.39-.32,6.94-1.31,10.16-2.71,8.75-3.09,18.38-8.95,26-1.87,2.42-4.71,4.08-6.89,6.3-5.77,5.91-10.94,12.54-17.29,17.73-4.49,3.67-6.38,7.63-7.65,13-1.49,6.37-4.22,11.68-2.38,19.21,2.3,9.42.86,19.77.83,29.73,0,7.51-2.48,10.46-9.44,13.16-3.31,1.29-7,2.63-9.42,5-5.47,5.29-11.33,10.5-8.87,19.86,1.16,4.41,1.22,9.38-4.58,12.21-2.42,1.18-3.87,4.54-5.52,7-2.6,4-4.2,9-7.65,11.84a50.68,50.68,0,0,0-14.22,18.15c-4.2,9.11-8,10.25-17.49,6.56-1.53-.6-3.58-.08-5.36.19-2.72.41-5.75,2-8,1.26-1.6-.56-2.38-4.14-3.08-6.51-1-3.43-1.23-7.13-2.46-10.47-3.95-10.71-8.26-21.25-7.41-33.08a10.9,10.9,0,0,0-2-7c-9.18-11.6-5.88-24.82-5.16-37.67.11-2,1.66-3.91,2.53-5.87.6-1.35,1.58-2.69,1.68-4.09,1.26-16.77-2.8-32.18-14-44.85-4.29-4.86-5.5-9.05-3.24-14.7.73-1.84,2.13-3.67,2.13-5.51a35.91,35.91,0,0,0-1.34-10.38c-1.19-3.93-4.55-2.22-7.43-2.31-2.19-.07-5.18-1.37-6.32-3.1-4-6.11-7.68-6.6-13.8-2.82a21.89,21.89,0,0,1-5.34,2.57c-2.47.71-5.57,2-7.54,1.17-5.36-2.38-10.28-1.15-15.53-.16-13.89,2.6-18.26,1.45-26.75-11.7-4.28-6.63-9.29-12.77-13.92-19.17a15.13,15.13,0,0,1-1.54-3.06,24.88,24.88,0,0,1-.83-18.86c.94-2.67.72-5.84.6-8.76-.15-3.43-1.13-6.83-1.12-10.25,0-18.78,9.45-32.43,24.14-43,3.22-2.31,5.57-4.51,4.5-8.94-.36-1.48-.21-3.81.72-4.76,5.06-5.13,9.21-11.46,17-13.25,7.93-1.83,16-3.44,23.64-6.07,8.12-2.79,16.29-3.28,24.62-2.64,7,.54,9.08,3.17,7,9.77-1.69,5.28.77,6.57,5.64,8a114.51,114.51,0,0,1,15.13,5.7c2.85,1.27,5.28,3.45,8,5,3.43,2,6.08.85,7.85-2.54,1.12-2.15,2.15-4.35,3.21-6.51,12.57,6,32.17,9.33,51.56,8.7.5-5.93,1.34-12,1.3-18.06,0-1.73-2.43-4.69-4-4.92a40.33,40.33,0,0,0-12.25.37c-7.31,1.21-12.18-3-17.61-6.63-3.82-2.55-1.7-5.95-2.57-8.86-.48-1.61-3.19-3.93-4.41-3.67-3.05.66-5.82,2.6-9.75,4.54,6.8,4,5.5,7.82.67,12.37-1.77-1.78-4.19-3.33-5.31-5.53-3-6-5.49-12.26-8.22-18.4a2.41,2.41,0,0,0-1.11-1c-7.13-3.77-14.27-7.51-21.58-11.35-1.5,3.58.94,5.65,3.49,7.54,5.15,3.83,10.38,7.57,15.39,11.21-2.4,9.39-7,15.06-12.17,14.72-1.91-.12-3.72-1.86-5.57-2.86A5.21,5.21,0,0,1,398,162.9c2.33-1,4.65-1.92,7-2.88-1.57-2.33-2.8-5-4.78-6.91-4.32-4.11-9.28-7.58-13.5-11.79-3-3-5.94-4.08-9.13-1.35-3.78,3.25-8.57,0-11.69,1.93-3.42,2.07-4.93,7.15-8.27,9.49-5.55,3.91-9,8.17-7.37,14.62l-18.83,5c-1.79-1.13-3.65-3.12-5.78-3.48-5.82-1-9-5-7.66-10.75a66.46,66.46,0,0,0,1.58-7.3c1-8.7,1.94-9.54,10.92-9,5,.29,9.89.52,14.39.75,5.32-10.63-1.48-14.89-9.88-18.92,12.21-3.06,21.6-8.75,30.34-15.71,1.5-1.2,3.69-1.47,5.46-2.37,2.37-1.21,4.64-2.62,7-3.94-1.61-1.91-3.23-3.8-4.81-5.73-.18-.22-.15-.62-.29-1.3L380.17,92c-.55,9.91-.24,10.35,9.42,9.78,7.48-.44,14.94-1.23,22.38-2.07,1.22-.14,3.32-1.35,3.32-2.07,0-4.69,2.89-5.88,7.09-6-1.1-4.69,1.34-5.68,5.16-5.69,2.3,0,4.6-.72,6.9-1.11l-.17-1.8c-5.66,0-11.33.23-17-.14-1.85-.12-4.58-1.44-5.18-2.91-1-2.52-.17-5,3.23-6.15,1.91-.68,3.26-3,5.08-4.71-4.25-3.11-7-2.39-9.91.15-2.17,1.91-5,3.1-7.08,5.08a6.63,6.63,0,0,0-1.6,4.65C401.9,80.27,403.24,81.51,403.79,82.41ZM67.33,296.52c-1.64-1.37-3.11-3.09-5-4.07-7.25-3.87-14.07-8-16.63-16.61a14,14,0,0,0-3.46-5.44c-1.29-1.32-3.45-3.09-4.85-2.81-7.14,1.41-10.83-3-14.35-7.77-2.64-3.53-5.08-5.94-9.69-2.64-1.37,1-3.88.89-5.75.58-3.63-.61-4.88.83-4.86,4.24.09,17-1.37,34.09.44,50.87,10,91.87,55.23,162.15,132.14,212.57a34.69,34.69,0,0,0,3.61,1.8,43.45,43.45,0,0,0-4.65-11.65c-3.89-7-6.92-14.12-6.62-22.45a54.57,54.57,0,0,0-3.52-22.25,23.09,23.09,0,0,1-1.12-11.2,76.83,76.83,0,0,0-5.56-42c-1.5-3.47-4.88-7.57-8.23-8.54-14.9-4.32-23.38-14-27.26-28.61-1.55-5.86-3.43-11.78-9-15.45-7.85-5.13-8.5-7.39-5.93-16.84,1.19-4.34,1.71-8.8-2.09-12.34,4.83-6.69,9.61-13.22,14.24-19.84a6.78,6.78,0,0,0,1.28-4,91.77,91.77,0,0,0-2-14.15c-.69-2.8-2.17-6.65-4.32-7.54-3.91-1.62-5,2.46-6,5.45C68,296.07,67.66,296.24,67.33,296.52Z" transform="translate(0)"/><path class="cls-1" d="M612.53,285v-8.93c1.43-.12,2.71-.32,4-.32,28.82,0,57.64-.46,86.44.26,11.69.29,23.74,1.74,34.88,5.12,29.68,9,41.59,32.2,39.53,61-1,14.56-5.06,28.34-15.23,39.31-17.28,18.66-39.32,26.52-64.27,25.17-9-.48-17.71-4.23-27.11-6.63-.14,1.65-.34,3-.35,4.42-.06,17.65-.14,35.31-.12,53,0,20.12,5.19,25.67,25.26,27.35,2.63.22,5.25.51,8.16.79v8.65H610.79v-8.43c4.47-.73,8.91-1.27,13.27-2.21,10.48-2.25,14.44-6.49,15.6-17.21a146.4,146.4,0,0,0,.49-16q.09-70.22.1-140.42c0-17.36-4.12-22.21-21.18-24.34C617.09,285.35,615.1,285.23,612.53,285Zm57.89,57.72h0v20c0,6.84.32,13.69-.11,20.49-.29,4.66,1.44,6.82,5.86,7.26,7.44.76,14.89,2.29,22.31,2.13,15.11-.31,34.94-8.9,40.58-27.84a104,104,0,0,0,3.47-15.56c1.82-13.6,1.33-27.06-5.42-39.43-9.33-17.08-31.61-26.28-53.25-22.38-11.4,2.06-13.34,4.28-13.4,15.85C670.37,316.39,670.42,329.55,670.42,342.72Z" transform="translate(0)"/><path class="cls-1" d="M610,243.32v-8c5.92-1.12,11.62-2.06,17.27-3.3,7.78-1.7,12.11-6.73,12.78-14.6.5-6,.76-12,.77-17.94q.13-68.22.07-136.43a103.69,103.69,0,0,0-.93-12.93c-.91-7.21-4.72-12-12.18-13.2-5.38-.88-10.78-1.67-16.45-2.54V25.33h89.21v9.11c-4.62.51-9.24.79-13.78,1.57-10.08,1.76-13.66,5.6-15,15.79a78.81,78.81,0,0,0-.81,9.93q0,69.21.06,138.43c0,5.48.53,11,1,16.43.61,6.44,4,11,10.36,12.59,18.27,4.47,36.62,4.09,54.86-.07,7.78-1.77,13.11-7.35,16.87-14,4.74-8.35,8.74-17.12,13.45-26.47l8.81,1.85c-.86,4.78-1.44,9.2-2.47,13.51-2.85,12-5.9,23.89-8.86,35.83-.6,2.45-1.51,4-4.63,4q-74.21-.18-148.42-.12A12.78,12.78,0,0,1,610,243.32Z" transform="translate(0)"/><path class="cls-1" d="M880.16,413.44c7.67,12.39,15.15,24.95,23.11,37.19C908.07,458,913.48,465,918.89,472s11.78,12.68,20.58,15.64c-.27,2.08-.53,4-.81,6.11-19.72,1.13-36.89-3.3-48.14-21-7.94-12.5-15.64-25.15-23.33-37.8-8-13.2-15.07-16.55-31.09-14.17-.09,1.33-.26,2.76-.26,4.19q0,19.5,0,39c0,15.87,3,19.18,18.85,20.76.82.09,1.63.24,2.81.42v6.56H792.79c-1.51-6.24-1.47-6.29,4.55-7.16,2.14-.31,4.26-.75,6.39-1.16,5.56-1.07,8.87-4.44,9.66-10a72,72,0,0,0,.67-9.95q.06-53.73,0-107.46c0-.83,0-1.67,0-2.5-.36-13.64-2.6-16.4-16-17.68-5.4-.52-5.82-3.06-4.61-7.51a20.69,20.69,0,0,1,2.78-.37c22.16,0,44.32-.13,66.47.18a80.08,80.08,0,0,1,18.76,2.43c15,3.84,25.61,12.83,29,28.4,3.66,16.66,0,31.55-13.31,43C892.3,406,886.53,409.16,880.16,413.44Zm-44.32-36.22c0,10,.16,20-.09,29.94-.09,3.59.67,5.2,4.6,4.92,4.63-.33,9.32.07,14-.25,7.39-.5,14.38-2.26,20.24-7.3,12.8-11,17-32.35,9.59-49-6.07-13.59-20.12-20.88-36.72-19-10.16,1.13-11.58,2.69-11.58,12.78Z" transform="translate(0)"/><path class="cls-1" d="M1128,243.81c-12.85,0-25.49.18-38.1-.2-2-.06-4.15-2.43-5.68-4.2-19.29-22.52-38.45-45.14-57.72-67.68-3.64-4.25-7.2-8.94-13.77-7.93-.36.54-.7.81-.7,1.08.15,19.15,0,38.31.64,57.45.28,8.87,4.23,12.26,13.07,13.53,3.11.45,6.23.82,9.59,1.25v6.34H968.78v-6.3c3-.45,5.93-.81,8.84-1.36,7.74-1.46,10.88-4.8,11.86-12.61a35.35,35.35,0,0,0,.21-4.49c0-37.66.08-75.32-.06-113,0-12.76-3.78-16.47-16.52-17.66-6.09-.57-6.09-.57-5-7.24h65.67v6.5c-3.2.52-6.59,1-9.94,1.64-7.53,1.52-10.84,4.42-11,12-.4,18.46-.13,36.94-.13,56.66,3.83-2.3,8-4,11.09-6.82q15.76-14.6,30.84-29.92c6.75-6.89,13-14.28,19.24-21.66,5.55-6.59,4.52-9.18-3.81-10.85-.65-.13-1.32-.19-2-.26-6.14-.64-6.14-.64-5.13-7.24h60.58v6.64c-2.1.28-4.34.61-6.6.87a49.94,49.94,0,0,0-29,13.31c-16.67,15.56-33.11,31.37-50.19,47.61,5.14,6.23,9.74,12,14.61,17.63,15.32,17.58,30.64,35.16,46.17,52.55,7.88,8.82,16.72,16.38,29.53,17.3Z" transform="translate(0)"/><path class="cls-1" d="M1633,324.06c40.48.19,75,32.66,78.13,75.42,1.84,25.42-3.5,48.7-20.38,68.47-20.8,24.38-57.51,34.14-88.94,23.85a81,81,0,0,1-55.19-70c-2.74-30.42,5.79-56.71,28.63-77.49C1590.84,330.09,1609.8,324.18,1633,324.06ZM1685.45,412c-.44-4.68-.75-11.86-1.86-18.91-2.85-18-9.55-34.24-23.49-46.81a49.81,49.81,0,0,0-73,6.64c-9.49,12.49-13.61,26.92-14.69,42.33-1.75,25,2.29,48.61,17.74,69.06,11.95,15.82,27.95,24.3,48.09,22s32.64-15.17,40.28-33.22C1683.76,440.77,1685,427.7,1685.45,412Z" transform="translate(0)"/><path class="cls-1" d="M1789.66,485.11v6.6h-58v-6.42c2.54-.45,5.13-.79,7.66-1.39,9-2.15,13.06-6.62,13.58-16,.7-12.63,1.25-25.29,1.36-37.94.22-23,.11-46,.06-69,0-15.16-6.88-22.95-22-25.27-1.46-.22-2.91-.55-4.62-.87v-7c12.13,0,24.08-.09,36,.13,1.28,0,2.75,1.68,3.75,2.89q48.51,58.75,96.93,117.59c1.31,1.59,2.66,3.14,4.84,5.71.16-2.87.31-4.29.31-5.7,0-21.16.19-42.33-.1-63.48-.15-11.31-1-22.61-1.77-33.9-.57-8.46-4.19-12.5-12.6-14.41-3.72-.84-7.52-1.28-11.62-2v-6.6h58v6.56c-1.86.33-3.75.71-5.67,1-10.24,1.54-14.28,5.7-14.86,16.1-.62,11-1.18,22-1.24,32.94-.16,34.32-.06,68.65-.07,103v6.09c-4.78,1.52-8.1.67-11.35-3.4q-49.85-62.18-100-124.09c-.83-1-1.71-2-3-3.45a13,13,0,0,0-.62,2.65q.42,48,.9,95.94c0,.67.06,1.33.11,2,1,15.44,5.31,19.88,20.67,21.2C1787.37,484.76,1788.34,484.93,1789.66,485.11Z" transform="translate(0)"/><path class="cls-1" d="M1254.9,80.87c.84,12,1.66,23.76,2.49,35.73l-7,1.21c-1.74-4.89-3.46-9.69-5.16-14.5-3.16-8.93-9.6-13.25-18.94-13.42-11.49-.21-23-.4-34.48-.5-2.89,0-6.12.23-6.14,4.19-.09,20.11,0,40.22,0,61.6,13.64-.69,27-1.16,40.4-2.14,4.37-.32,6.87-3.8,8.15-7.88.94-3,1.7-6,2.55-9.1h6.83v47.38c-5,1.71-7.26.41-8.3-4.91-2.1-10.71-5.25-13.29-16.32-13.67s-21.93-.08-33.28-.08a32.83,32.83,0,0,0-.4,3.75c.09,16.16.1,32.32.39,48.47.22,12.45,4.37,17.18,16.71,17.63a321,321,0,0,0,33.4-.78c7.16-.49,12.91-4.39,16.56-10.71s7.16-13.12,10.94-20.09l6.67,1.11c-1.87,9.08-3.54,18-5.56,26.82-2.94,12.86-3,12.84-16.37,12.84H1137.87v-6.57c4.68-.78,9.44-1.35,14.09-2.41,6.84-1.55,10.17-4.79,10.2-11.7q.33-61.23,0-122.45c-.06-8.75-4.47-11.7-15.35-12.63-6.11-.53-6.11-.53-5.22-7.19Z" transform="translate(0)"/><path class="cls-1" d="M991.29,401.62c12.4,0,24.35.28,36.28-.11,6.61-.21,10.54-4.38,11.9-10.87.48-2.28,1-4.53,1.61-7h6.69v47.91h-6.55c-.92-3.39-1.77-6.91-2.82-10.37-1.39-4.56-4.52-7.81-9.21-8.05-11.79-.62-23.61-.75-35.42-.81-.87,0-2.52,2.05-2.53,3.16-.09,16.82-.39,33.66.23,50.47.45,12.37,4.57,16.3,17.07,16.72a306.58,306.58,0,0,0,32.35-.91c6.47-.46,11.6-4.19,14.87-9.84,3.9-6.74,7.46-13.67,11.35-20.86l6.11,1c-.45,2.74-.78,5.31-1.3,7.84-2,9.61-3.94,19.23-6.18,28.78-.3,1.28-2.17,3.12-3.31,3.13q-58.23.19-116.46,0c-.29,0-.59-.26-1-.46v-6.16c4.55-.73,8.84-1.22,13-2.14,7-1.55,9.93-4.9,10.7-12a77.27,77.27,0,0,0,.35-8.48q0-52.49,0-105v-.5c0-17.79-2-20.73-18.71-22a10.21,10.21,0,0,1-1.76-.51v-6.5h110.25c.76,11.28,1.72,22.51,2,33.76,0,1.37-3.47,2.82-5.69,4.51-2.75-7.13-4.92-12.82-7.13-18.5-2.41-6.23-7.12-9.79-13.63-10.08q-19.2-.87-38.43-.77c-1.57,0-4.48,2.6-4.5,4C991.19,361.26,991.29,381.37,991.29,401.62Z" transform="translate(0)"/><path class="cls-1" d="M952.07,237.15v6.33H889v-6.33c3.22-.73,6.46-1.32,9.61-2.21,5.94-1.69,7.53-4.19,5.63-10-4.17-12.64-8.6-25.2-13.16-37.7a5.15,5.15,0,0,0-4-2.57q-24.24-.27-48.47,0a5.52,5.52,0,0,0-4.06,3q-5.91,16.71-11.25,33.62c-2.87,9.09-.71,12.51,8.67,14.36,2.75.54,5.54.87,8.52,1.33v6.38H785.11v-6c.32-.21.56-.53.83-.55,14.34-.94,21.41-10.07,26.31-22.41C829.39,171.38,846.93,128.4,864,85.24c2.15-5.43,5.16-8,11.2-8.07l13.51,36.74q18.62,50.6,37.22,101.18c.69,1.87,1.54,3.69,2.26,5.55,3.5,9.2,9.73,14.92,19.86,15.8C949.36,236.55,950.64,236.89,952.07,237.15ZM840,173.7h46.12c-7.31-21-14.49-41.7-21.68-62.37h-1.42Z" transform="translate(0)"/><path class="cls-1" d="M1236.23,369.6l-7.11,1.64c-1.36-3.75-2.53-7.19-3.85-10.56-6.5-16.62-19-25-36.47-26.83-43.77-4.64-67.29,25.85-71.82,60.06-3.23,24.4.65,47.6,15.47,68,15.88,21.83,45.06,30.77,68.43,21.28,12-4.88,19.77-14.38,26.3-25.06,2.16-3.53,4.12-7.18,6.14-10.71,7.32,1.83,7.49,1.89,5.3,8.38-3.24,9.61-6.81,19.11-10.16,28.69-1.14,3.26-3,5.13-6.68,5.65-11.2,1.59-22.28,4.4-33.52,5.17-31.82,2.19-60.44-5.28-81.2-31.5-30-37.91-24.06-111.69,41.71-133.78,23.62-7.93,47.4-6.9,71.5-1.75,8.41,1.8,12,5.1,12.41,13.64C1233.12,351,1234.94,360,1236.23,369.6Z" transform="translate(0)"/><path class="cls-1" d="M1292.5,197.32c4,8.12,7.07,16.11,11.59,23.16,8.83,13.78,21.57,20.57,38.25,17.9,10.53-1.69,18.11-7.5,21.43-17.86,3.83-12,2.69-23.5-6.63-32.43-5.92-5.67-13.22-10-20.23-14.42-8.44-5.32-17.67-9.45-25.76-15.21-19.49-13.9-25.6-34.79-16.32-54.85,7-15.17,19.93-22.71,35.85-25.72,14.47-2.74,28.49-.48,42.25,4.08,1.21.4,2.87,1.62,3,2.65,1.58,10.83,2.9,21.7,4.33,32.8L1373.6,119c-2.42-5.81-4.31-11.5-7.07-16.75-7.19-13.7-20.07-19.48-34.75-16.08C1313,90.55,1305,114.11,1317,130.32c6,8.19,14.84,12.65,23.41,17.48,9.56,5.39,19.44,10.35,28.43,16.58,29.84,20.72,23.29,63.37-9.72,77.55-21.43,9.2-42.65,6.71-63.52-2.09a6.82,6.82,0,0,1-3.26-4.46c-2-11-3.66-22-5.5-33C1285.89,197,1290.61,198.69,1292.5,197.32Z" transform="translate(0)"/><path class="cls-1" d="M1341.33,447l6.56-1.66c3.4,7.46,6.18,14.79,10,21.57,8.78,15.7,24.54,22.95,40.23,19.11,19.94-4.87,28-31.37,14.18-48.11-4.35-5.26-10.28-9.44-16-13.25-7.63-5-16-8.95-23.74-13.77-9.9-6.13-18.58-13.58-23.15-24.76-11-26.79,5.62-55.55,35.12-60.9,14.32-2.6,28.19-.51,41.77,4.17,1.06.37,2.5,1.48,2.63,2.4,1.54,11,2.86,22,4.28,33.33l-6.76,1.37c-1.55-4.25-2.92-8.48-4.63-12.57C1417,342.47,1409.49,334,1396.21,333c-10.63-.78-20.07,2-25.77,11.78-6,10.27-6.37,21.27.12,31.24,3.5,5.38,8.83,10,14.23,13.62,8.12,5.46,17.13,9.57,25.54,14.63a110,110,0,0,1,15.06,10.64c22.39,19.25,19.55,54.91-6,71.11-22.52,14.27-46,11.7-69.28,1.67a5.1,5.1,0,0,1-2.4-3.35C1345.5,472.11,1343.48,459.82,1341.33,447Z" transform="translate(0)"/><path class="cls-1" d="M1459.32,335v-6.71h65.59V335c-2.87.35-5.94.67-9,1.12-8.54,1.28-11.82,4.43-12.16,13-.48,11.82-.48,23.66-.52,35.49-.06,25.16,0,50.33,0,75.49,0,1.67,0,3.34.07,5,.62,15.6,3.17,18.24,18.85,19.58.82.07,1.62.22,2.81.39v6.58h-65.57v-6.4c3.92-.65,7.68-1.16,11.39-1.91,5.91-1.19,9.06-4.48,9.78-10.43a91.31,91.31,0,0,0,.59-11q.06-52,0-104c0-2.83-.14-5.66-.36-8.48-.68-8.89-3.64-12.09-12.42-13.39C1465.44,335.64,1462.48,335.37,1459.32,335Z" transform="translate(0)"/><path class="cls-1" d="M1255.7,335v-6.74h65.56V335c-3,.37-5.94.69-8.86,1.1-8.69,1.24-11.93,4.66-12.55,13.35-.21,3-.24,6-.24,9q0,51.48,0,103a97.74,97.74,0,0,0,.7,12.45c.7,5.43,4.13,8.53,9.45,9.58,2.12.42,4.29,1.18,6.39,1,5.32-.33,6.43,2.21,4.94,7.12h-65.27v-6.37c3.61-.57,7.2-1,10.75-1.73,6.56-1.28,9.5-4.45,10.21-11.08a103.19,103.19,0,0,0,.69-11q.09-51.24,0-102.48c0-3.66-.28-7.33-.65-11-.75-7.3-3.45-10.25-10.74-11.65C1262.85,335.72,1259.52,335.46,1255.7,335Z" transform="translate(0)"/><path class="cls-1" d="M1937,438.85c13.18,0,25,.08,36.75-.06,3.32,0,5.55-1.88,6.13-5.43a16,16,0,0,1,1.4-3.41l1.29.36V451.1l-1,.47a13.26,13.26,0,0,0-1.8-3c-1.78-1.69-3.72-4.43-5.68-4.52-13.3-.56-26.63-.66-39.94-.62-4.1,0-6.68,2.45-7.52,6.68-.23,1.14-1.4,2.09-2.14,3.13l-1.37-.61c0-3.94-.25-7.91.13-11.81.14-1.34,1.65-2.76,2.86-3.75,13.66-11.14,27.39-22.21,41.24-33.41-.47-.42-.81-1-1.14-1-11.32.08-22.64.16-34,.35-3.58.06-5.27,2.18-5.68,5.7-.12,1-1.25,2-1.92,2.93-.52-1-1.46-2.06-1.48-3.1-.15-6-.07-12.07-.07-18.11l1.39-.23c.63.58,1.79,1.13,1.83,1.76.4,5.52,4.16,6.11,8.48,6.11,16.15,0,32.29,0,50.28,0-1.94,2.72-2.79,4.65-4.25,5.83-13,10.43-26.06,20.72-39.11,31.06C1940.42,436,1939.2,437,1937,438.85Z" transform="translate(0)"/><path class="cls-1" d="M1904.33,458.41c.78,1.31,2.11,2.57,2.22,3.93.41,4.7,2.7,6.87,7.39,6.86q28.72,0,57.43,0c4.57,0,7.1-2,7.55-6.76.14-1.41,1.37-2.71,2.1-4.06l1.62.65v31.58l-1.21.79c-.85-1.2-2.32-2.34-2.46-3.62-.57-5.36-3.45-7.45-8.64-7.42q-27.74.14-55.45,0c-5.2,0-8.15,2.08-8.41,7.58,0,1-1.5,2-2.3,3-.54-.67-1.53-1.34-1.54-2-.1-9.95-.07-19.9-.07-29.86Z" transform="translate(0)"/><path class="cls-1" d="M1939.25,334.24a11.32,11.32,0,0,1-2.18,1.88c-13.34,6.43-15.45,23.45-4,32.92,10.8,9,31.6,8,41.56-1.85,9.33-9.27,7.94-23.27-3-30.44a33.11,33.11,0,0,1-3.41-2.05c-.62-.52-.82-1.53-1.21-2.31.79-.28,1.72-1,2.37-.77,3.65,1.12,7.28,2.35,10.82,3.77a4.13,4.13,0,0,1,2.23,2.41c2.15,9.32,3.51,18.7-.09,28-4.8,12.45-15.73,19.39-29.86,19.07a30.69,30.69,0,0,1-28.57-21.18c-3-9-2.55-18,0-27,.27-1,1.18-2.3,2-2.43,4.21-.71,8.47-1.08,12.72-1.57Z" transform="translate(0)"/><path class="cls-1" d="M1984.27,318.38c-.44,3.74-2.56,5.68-6.26,5.61s-6-2.3-5.91-5.9c.08-3.45,2.56-5.25,6-5.3C1981.78,312.74,1983.91,314.63,1984.27,318.38Z" transform="translate(0)"/><path class="cls-1" d="M541.46,394.12c3,6.78,1.89,12.84-.15,18.56-3.56,10-7.52,19.91-11.73,29.67-1.48,3.42-1.68,8.72-7.7,8.1-2.06-.21-5.76.08-5.93-.58-.91-3.48-1.78-7.38-1.05-10.79,1.09-5.15,3.77-9.95,5.26-15.05.76-2.62,0-5.67.7-8.33a8.54,8.54,0,0,1,3.51-5c6.17-3.3,12.39-6.27,14.06-14.08C538.62,395.75,540.15,395.16,541.46,394.12Z" transform="translate(0)"/><path class="cls-1" d="M353.61,105.51c-4,8-14.19,10.46-18.19,4.58-.54-.79-1.39-2.18-1.1-2.59,2.91-4.12.84-7.62-.68-11.54-1.79-4.61-.18-10,2.44-10,4.68.15,6.26,3.58,6.76,7.73C343.62,100,348.72,102.5,353.61,105.51Z" transform="translate(0)"/><path class="cls-1" d="M98.05,234.41C95.48,238,92.38,238.16,89,237a7.87,7.87,0,0,1-2.67-1.33c-7.11-6.51-14.18-13-25.54-7.54,1.21-5.41,4.06-7.37,7.83-7.07,10.39.83,19.14,6.15,28,11C97.2,232.42,97.45,233.43,98.05,234.41Z" transform="translate(0)"/><path class="cls-1" d="M200.37,105c5.77,4.06,10.2,8,6,14.82l-19.28-4.51Z" transform="translate(0)"/><path class="cls-1" d="M332.51,97.31c-.53,1.34-1.39,2.46-1.29,3.49.48,5.36-3.2,6.66-7.19,7.42-1.79.34-5,.44-5.34-.37a9,9,0,0,1-.35-6.48C320,97,327.94,94.8,332.51,97.31Z" transform="translate(0)"/><path class="cls-1" d="M357.64,102.67c-2.34-1.56-5-2.43-5.16-3.67-.25-1.64,1-4.14,2.38-5.24a23.44,23.44,0,0,1,7.88-3.9c1.13-.33,3.48.8,4,1.89.68,1.34.75,4.1-.14,4.9C364.05,99,360.87,100.59,357.64,102.67Z" transform="translate(0)"/><path class="cls-1" d="M317.47,57.43h23.2C337.11,63.19,324,66.52,319.52,63,318.24,62,318.16,59.44,317.47,57.43Z" transform="translate(0)"/><path class="cls-1" d="M120.86,243.41c-7.5-.25-14.78,3.38-21.43-1.55C104.12,234.2,115.5,234.79,120.86,243.41Z" transform="translate(0)"/></svg>