<?xml version="1.0" encoding="utf-8"?>
<!-- Generator: Adobe Illustrator 24.1.3, SVG Export Plug-In . SVG Version: 6.00 Build 0)  -->
<svg version="1.1" id="Layer_1" xmlns="http://www.w3.org/2000/svg" xmlns:xlink="http://www.w3.org/1999/xlink" x="0px" y="0px"
	 viewBox="0 0 2564.2 831.3" style="enable-background:new 0 0 2564.2 831.3;" xml:space="preserve">
<style type="text/css">
	.st0{fill:#FFFFFF;}
</style>
<g id="Ref">
</g>
<g id="Layer_1_1_">
	<g>
		<polygon class="st0" points="892.9,831.2 1541.3,831.2 1541.3,669.8 1068.7,669.8 1068.7,496.4 1522.3,496.4 1522.3,334.9 
			1068.7,334.9 1068.7,161.5 1541.3,161.5 1541.3,0.1 892.9,0.1 		"/>
		<path class="st0" d="M2117.2,334.9h-220.9c-55.8,0-93.8-34.4-93.8-86.7s38-86.7,93.8-86.7h287.4v87.9h168.6v-52.2
			c0-117.6-77.2-197.1-192.4-197.1h-287.4c-146.1,0-244.6,99.7-244.6,248.2c0,148.4,98.6,248.2,244.6,248.2h222
			c55.8,0,93.8,34.4,93.8,86.7s-38,86.7-93.8,86.7H1806V582h-167.4v53.4c0,117.6,77.2,195.9,192.4,195.9h286.2
			c147.2,0,245.8-99.7,245.8-248.2S2264.4,334.9,2117.2,334.9z"/>
		<polygon class="st0" points="2383.3,22.5 2383.3,97.2 2384.7,98.6 2407.2,98.6 2408.6,97.2 2408.6,22.5 2410,21.1 2438.2,21.1 
			2439.6,19.7 2439.6,1.4 2438.2,0 2353.7,0 2352.3,1.4 2352.3,19.7 2353.7,21.1 2381.8,21.1 		"/>
		<polygon class="st0" points="2476.9,98.6 2478.3,97.2 2478.3,52.1 2479.7,52.1 2498,97.2 2499.4,98.6 2517.7,98.6 2519.1,97.2 
			2537.4,52.1 2538.8,52.1 2538.8,97.2 2540.3,98.6 2562.8,98.6 2564.2,97.2 2564.2,1.4 2562.8,0 2536,0 2534.6,1.4 2509.3,64.8 
			2507.9,64.8 2482.5,1.4 2481.1,0 2454.4,0 2453,1.4 2453,97.2 2454.4,98.6 		"/>
		<path class="st0" d="M566.4,0.1H218.5C87.9,0.1,0,88,0,219.8v391.8c0,131.8,87.9,219.7,218.5,219.7h347.9
			c131.8,0,219.7-87.9,219.7-219.7V219.7C786.1,87.9,698.2,0.1,566.4,0.1z M610.3,669.8H175.7V161.5h434.6V669.8z"/>
	</g>
</g>
</svg>
